<svg width="50" height="60" viewBox="0 0 50 60" fill="none" xmlns="http://www.w3.org/2000/svg">
<path d="M31.2095 4.16499L36.3144 4.25854C37.3004 4.27661 38.2858 4.19741 39.2562 4.02208L41.3037 3.65215C42.5249 3.43152 43.714 3.06019 44.8437 2.54669L48.0562 1.08652L49.5141 0L49.838 1.08652L50 2.89738V3.833V4.76861L49.838 5.91549L49.5141 7.1831L49.0821 8.63179L49.0383 8.80324C48.8518 9.53298 48.6106 10.2476 48.3167 10.9411L48.2722 11.0463L47.8402 12.3139L47.3542 13.34L46.5713 14.6378C46.0522 15.4183 45.4212 16.1183 44.6986 16.7154L44.5465 16.841C43.7351 17.5115 42.7506 17.9387 41.7068 18.0733L40.4968 18.2294H38.9579H37.419L35.0702 17.8974L32.7214 17.5654L25.378 14.1738L31.2095 4.16499Z" fill="#FF9A9A"/>
<path d="M15.0074 6.19577C15.2969 5.96922 15.6082 5.7719 15.9366 5.6067L16.5227 5.31185L17.8186 4.70823L18.2962 4.53661C18.984 4.28946 19.6947 4.11139 20.4177 4.00504C21.0595 3.91064 21.7084 3.87312 22.3567 3.89292L31.2635 4.16497L34.5572 17.5654H31.2635H30.6009C30.0428 17.5654 29.4928 17.6989 28.9969 17.9548L28.8698 18.0203C28.5255 18.198 28.2215 18.4449 27.9771 18.7455C27.8645 18.884 27.7653 19.0329 27.6809 19.1901L27.3218 19.8591L27.1163 20.3953C27.0377 20.6003 26.9868 20.8149 26.9651 21.0334L26.9523 21.1628C26.9116 21.5719 26.9953 21.9837 27.1925 22.3444C27.3826 22.6921 27.6697 22.977 28.0189 23.1644L28.7245 23.543C28.7971 23.5819 28.8736 23.6132 28.9527 23.6363C29.5749 23.8177 29.9353 24.4661 29.761 25.0904L26.8898 35.3722H24.2441L11.6631 34.5875V34.3461V31.4487L11.1771 26.1972L10.7991 20.2817L11.1771 15.6941L11.987 11.5895L12.1954 10.9087C12.5233 9.83729 12.9791 8.80935 13.5529 7.84706L13.8907 7.36876C14.2038 6.92542 14.58 6.53025 15.0074 6.19577Z" fill="#FF9A9A"/>
<path d="M40.7127 23.3602L42.7106 22.5151V24.0242V26.8612L42.4406 29.6982L42.0626 31.5695L41.4687 33.1389L40.7127 34.4065L38.8229 35.5534L36.2851 36.5192H35.2052L32.4514 36.3381L29.4276 35.7948L26.7819 35.3723L28.2397 23.8129L28.7428 23.7125C28.9081 23.6795 29.0794 23.6932 29.2373 23.7521C29.2921 23.7725 29.3487 23.7875 29.4063 23.7971L32.9786 24.387C33.7058 24.5071 34.4417 24.5675 35.1787 24.5675H35.45C36.0623 24.5675 36.6735 24.5135 37.2764 24.4063C37.8027 24.3127 38.3209 24.1787 38.8266 24.0057L39.3899 23.8129L40.7127 23.3602Z" fill="#FF9A9A"/>
<path d="M11.6631 34.4065L23.8661 34.8894L25 35.0705L25.324 38.3904V41.9518L25.216 43.7023L24.946 45.5735L24.676 47.2033L24.406 48.8934L23.9741 51.0665L23.6231 52.0926C23.3907 52.7721 23.0486 53.409 22.6103 53.9779L22.4352 54.2053L21.5443 55.2314L20.6803 56.318L19.6004 57.4045L18.7703 58.1557C18.5681 58.3387 18.3522 58.5061 18.1247 58.6565C17.5655 59.0258 16.9424 59.2876 16.2873 59.4285L16.2619 59.4339C16.0041 59.4893 15.7427 59.5262 15.4797 59.5443L14.1199 59.6379L12.365 59.7586L10.7451 59.8793L10.4257 59.9031C9.56038 59.9676 8.6911 59.9569 7.82764 59.8711L6.69546 59.7586L4.69762 59.5172L3.45572 59.2153L1.1879 58.6117L0 58.1892L1.40389 57.0423L3.88769 54.8693L4.85433 53.9575C5.36104 53.4796 5.82964 52.9628 6.25586 52.4118C6.97772 51.4788 7.57298 50.4543 8.02615 49.3651L8.42333 48.4105L9.12527 46.1168L9.71922 43.9437L10.4212 41.1067L11.2311 37.0021L11.6631 34.4065Z" fill="#FF9A9A"/>
<path d="M39.1726 52.5635C37.5252 56.7699 34.287 57.4556 32.0802 56.1236C29.7356 54.7083 28.6903 51.7549 29.8877 48.726C31.0851 45.6972 33.9351 43.7735 36.4241 45.0179C39.1935 46.2524 40.234 49.3731 39.1726 52.5635Z" fill="#FF9A9A"/>
</svg>
